<svg width="2033" height="551" viewBox="0 0 2033 551" fill="none" xmlns="http://www.w3.org/2000/svg">
<path d="M856.365 551.001C847.643 548.498 838.922 546.211 830.271 543.494C775.439 526.121 743.698 468.926 758.068 413.233C760.57 403.295 765.359 398.291 776.083 400.221C788.808 402.652 801.533 405.297 814.186 406.441C826.197 407.442 827.412 413.447 826.554 423.814C823.408 458.345 835.276 477.577 861.798 483.225C887.462 488.587 913.198 474.288 922.135 449.552C932.072 421.955 921.134 391.141 896.041 375.913C890.965 373.983 885.532 373.268 880.099 373.84C831.916 374.483 789.165 361.901 764.073 317.289C737.693 272.891 737.479 217.627 763.429 173.015C790.953 129.046 842.925 106.669 893.753 116.964C906.335 119.037 918.703 122.612 932.715 125.901C943.295 114.176 955.234 101.736 966.386 88.7241C970.747 81.0743 980.541 78.429 988.19 82.7901C989.906 83.7911 991.407 85.0064 992.623 86.5793C1030.3 117.321 1021.79 109.886 998.699 140.485C992.408 148.85 985.617 156.714 979.111 164.722C1014.07 244.151 1007.56 294.983 954.447 351.248C984.33 376.199 998.699 415.092 992.122 453.484C985.76 500.598 950.015 538.418 903.261 547.355C898.543 548.355 893.968 549.928 889.393 551.215H856.222L856.365 551.001ZM930.427 244.079C933.358 213.337 910.768 186.027 880.028 183.095C877.454 182.881 874.809 182.809 872.235 182.881C841.138 182.666 815.759 207.618 815.473 238.717C815.473 240.505 815.473 242.292 815.688 244.079C812.542 275.108 835.133 302.847 866.23 305.921C868.589 306.136 870.949 306.279 873.236 306.207C907.765 306.493 930.57 281.685 930.499 244.008" fill="white"/>
<path d="M2033 254.374C2031.21 265.098 2030.14 275.893 2027.57 286.546C2012.34 351.605 1953.22 389.139 1883.3 378.486C1804.74 366.475 1764.85 306.135 1778.57 220.343C1789.29 153.139 1853.06 110.958 1925.69 122.897C1983.96 128.188 2024.99 172.228 2031.71 234.784C2032.21 238.788 2032.21 242.863 2033.07 246.938V254.374H2033ZM1961.87 250.513C1964.16 218.841 1940.42 191.316 1908.75 189.029C1906.89 188.886 1905.03 188.814 1903.25 188.886C1871.72 188.6 1845.99 213.908 1845.63 245.437C1845.63 246.867 1845.63 248.368 1845.77 249.798C1842.84 281.184 1865.86 309.066 1897.24 311.997C1899.24 312.212 1901.32 312.283 1903.39 312.212C1935.13 312.855 1961.37 287.69 1962.01 255.946C1962.01 254.088 1962.01 252.3 1961.87 250.441" fill="white"/>
<path d="M631.318 339.666C610.658 368.335 576.129 383.635 540.956 379.631C498.492 377.486 462.032 348.889 449.736 308.209C428.147 249.87 442.373 183.453 485.409 150.209C526.658 116.821 583.778 110.816 631.032 135.052C678.429 156.285 695.801 197.823 696.945 247.154C697.803 282.185 696.802 317.217 697.374 352.106C697.66 367.191 692.298 374.126 677.071 372.553C673.353 372.267 669.708 372.267 665.99 372.553C628.458 372.267 636.608 373.983 631.318 339.738M509.001 252.087C509.215 290.979 530.233 313.571 566.406 313.643C600.006 313.928 627.458 286.975 627.744 253.445C627.744 252.23 627.744 250.943 627.672 249.727C629.245 217.484 604.438 190.102 572.197 188.529C570.91 188.529 569.552 188.458 568.265 188.529C535.237 188.672 508.643 215.554 508.786 248.583C508.786 249.727 508.786 250.943 508.929 252.087" fill="white"/>
<path d="M1413.41 258.306C1416.55 302.989 1459.37 323.865 1501.91 304.133C1509.34 300.773 1519.21 294.91 1525 297.341C1539.94 304.347 1554.02 312.998 1567.04 323.15C1568.61 324.366 1567.04 334.017 1564.18 337.091C1529.65 372.91 1477.82 386.207 1430.28 371.408C1384.6 362.4 1350 324.938 1344.49 278.681C1340.63 255.732 1341.06 232.282 1345.71 209.476C1360.93 138.411 1434.85 101.306 1510.99 124.112C1563.89 138.912 1599.28 188.528 1596.13 243.292C1595.63 256.304 1589.2 258.377 1578.47 258.306C1530.65 258.091 1482.68 258.306 1434.78 258.306H1413.48M1519.5 218.341C1510.13 196.392 1487.4 183.166 1463.66 185.883C1443.15 185.096 1424.7 198.537 1419.2 218.341H1519.5Z" fill="white"/>
<path d="M1293.66 299.7C1293.66 320.004 1293.16 340.308 1293.73 360.612C1294.09 373.696 1289.8 379.63 1275.72 379.344C1214.24 378.057 1223.96 387.566 1223.25 328.512C1222.82 301.416 1223.46 274.32 1222.96 247.295C1225.68 221.629 1207.02 198.608 1181.35 195.892C1179.28 195.677 1177.21 195.606 1175.13 195.677C1149.76 192.817 1126.88 211.048 1124.02 236.428C1123.66 239.503 1123.66 242.648 1123.88 245.723C1122.8 283.829 1123.09 322.006 1123.73 360.112C1123.95 374.625 1118.44 379.701 1104.22 379.415C1043.67 377.985 1054.17 387.78 1053.39 329.227C1052.96 302.202 1053.1 275.178 1053.39 248.082C1054.39 167.938 1112.72 118.107 1192.08 129.188C1250.84 133.621 1295.59 183.666 1293.45 242.505C1294.02 261.594 1293.45 280.611 1293.45 299.772H1293.73L1293.66 299.7Z" fill="white"/>
<path d="M1720.88 144.918V352.749C1720.88 380.989 1720.88 381.132 1692 380.846C1645.74 380.56 1650.61 387.352 1650.46 340.023C1650.32 295.912 1650.46 191.317 1650.46 144.918C1631.59 144.918 1613.86 144.489 1596.27 145.061C1582.19 145.561 1576.76 143.345 1577.04 128.832C1578.33 72.0659 1569.68 81.1456 1623.94 80.2162C1631.88 80.0732 1639.88 80.2162 1650.46 80.2162C1650.46 52.4052 1651.25 49.1165 1650.11 22.3065C1649.46 5.64853 1654.61 -0.49991 1671.98 -0.0709495C1728.6 1.5734 1720.16 -7.86373 1720.88 48.7591C1721.09 66.4895 1720.88 60.627 1720.88 80.2162C1740.11 80.2162 1757.77 80.7881 1775.35 80.0732C1788.94 79.5013 1794.23 85.5067 1794.08 98.59C1793.3 156.714 1800.66 143.988 1746.04 144.846C1738.18 144.989 1730.32 144.846 1720.88 144.846" fill="white"/>
<path d="M235.127 248.081C235.413 244.292 235.627 240.503 235.627 236.714C235.627 171.44 182.868 118.535 117.813 118.535C52.7586 118.535 0.357244 171.083 0.0712891 236.07V236.285L0.857666 371.693C0.929155 380.201 7.93506 387.065 16.4422 386.993L60.1219 386.564C69.7014 386.493 77.3507 378.628 77.2078 369.048L76.4929 299.199V249.44C76.4929 226.49 95.0085 207.902 117.885 207.902C138.474 207.902 155.488 222.987 158.705 242.648L160.063 371.693C160.135 380.201 167.141 387.065 175.648 386.993L219.328 386.564C228.907 386.493 236.556 378.628 236.413 369.048L235.127 248.081Z" fill="#66C1EA"/>
<path d="M394.333 248.081C394.619 244.292 394.833 240.503 394.833 236.714C394.833 171.44 342.074 118.535 277.019 118.535C211.965 118.535 159.563 171.154 159.277 236.142V236.356L160.064 371.765C160.135 380.273 167.141 387.136 175.648 387.065L219.328 386.636C228.907 386.564 236.557 378.7 236.414 369.12L235.699 299.271V249.511C235.699 226.562 254.215 207.973 277.091 207.973C297.68 207.973 314.694 223.059 317.911 242.719L319.269 371.765C319.341 380.273 326.347 387.136 334.854 387.065L378.534 386.636C388.113 386.564 395.762 378.7 395.619 369.12L394.333 248.153V248.081Z" fill="#00A7E1"/>
</svg>
